<svg width="36" height="36" viewBox="0 0 36 36" fill="none" xmlns="http://www.w3.org/2000/svg">
<path d="M11.1 19.5H27.8625C28.2875 19.5 28.6438 19.3563 28.9313 19.0688C29.2188 18.7813 29.3625 18.425 29.3625 18C29.3625 17.575 29.2188 17.2188 28.9313 16.9313C28.6438 16.6438 28.2875 16.5 27.8625 16.5H11.1L18.45 9.15004C18.75 8.85004 18.8938 8.50004 18.8813 8.10004C18.8688 7.70004 18.7125 7.35004 18.4125 7.05004C18.1125 6.77504 17.7625 6.63129 17.3625 6.61879C16.9625 6.60629 16.6125 6.75004 16.3125 7.05004L6.41255 16.95C6.26255 17.1 6.1563 17.2625 6.0938 17.4375C6.0313 17.6125 6.00005 17.8 6.00005 18C6.00005 18.2 6.0313 18.3875 6.0938 18.5625C6.1563 18.7375 6.26255 18.9 6.41255 19.05L16.3125 28.95C16.5875 29.225 16.9313 29.3625 17.3438 29.3625C17.7563 29.3625 18.1125 29.225 18.4125 28.95C18.7125 28.65 18.8625 28.2938 18.8625 27.8813C18.8625 27.4688 18.7125 27.1125 18.4125 26.8125L11.1 19.5Z" fill="#54505A"/>
</svg>
