<svg width="36" height="36" viewBox="0 0 36 36" fill="none" xmlns="http://www.w3.org/2000/svg">
<path d="M24.2625 19.5H7.5C7.075 19.5 6.71875 19.3563 6.43125 19.0688C6.14375 18.7813 6 18.425 6 18C6 17.575 6.14375 17.2188 6.43125 16.9313C6.71875 16.6438 7.075 16.5 7.5 16.5H24.2625L16.9125 9.15004C16.6125 8.85004 16.4687 8.50004 16.4812 8.10004C16.4937 7.70004 16.65 7.35004 16.95 7.05004C17.25 6.77504 17.6 6.63129 18 6.61879C18.4 6.60629 18.75 6.75004 19.05 7.05004L28.95 16.95C29.1 17.1 29.2062 17.2625 29.2687 17.4375C29.3312 17.6125 29.3625 17.8 29.3625 18C29.3625 18.2 29.3312 18.3875 29.2687 18.5625C29.2062 18.7375 29.1 18.9 28.95 19.05L19.05 28.95C18.775 29.225 18.4312 29.3625 18.0187 29.3625C17.6062 29.3625 17.25 29.225 16.95 28.95C16.65 28.65 16.5 28.2938 16.5 27.8813C16.5 27.4688 16.65 27.1125 16.95 26.8125L24.2625 19.5Z" fill="#54505A"/>
</svg>
