<svg width="48" height="48" viewBox="0 0 48 48" fill="none" xmlns="http://www.w3.org/2000/svg">
<path d="M10.1001 40.6L20.0001 30.7C20.3668 30.3333 20.5501 29.8666 20.5501 29.3C20.5501 28.7333 20.3668 28.2666 20.0001 27.9C19.6334 27.5333 19.1668 27.35 18.6001 27.35C18.0334 27.35 17.5668 27.5333 17.2001 27.9L7.30009 37.8C6.93343 38.1666 6.7501 38.6333 6.7501 39.2C6.7501 39.7666 6.93343 40.2333 7.30009 40.6C7.66676 40.9666 8.13343 41.15 8.7001 41.15C9.26676 41.15 9.73343 40.9666 10.1001 40.6ZM32.7501 37.35C33.6834 38.2833 34.7751 38.725 36.0251 38.675C37.2751 38.625 38.2334 38.0833 38.9001 37.05C40.9001 33.95 41.9584 30.5916 42.0751 26.975C42.1918 23.3583 41.3668 19.95 39.6001 16.75C39.5001 17.8833 39.2168 19.1583 38.7501 20.575C38.2834 21.9916 37.6418 23.4833 36.8251 25.05C36.0084 26.6166 35.0334 28.225 33.9001 29.875C32.7668 31.525 31.5168 33.15 30.1501 34.75L32.7501 37.35ZM27.4001 32C29.0001 30.4 30.4001 28.6583 31.6001 26.775C32.8001 24.8916 33.7418 23.0666 34.4251 21.3C35.1084 19.5333 35.4918 17.925 35.5751 16.475C35.6584 15.025 35.3501 13.95 34.6501 13.25C33.9501 12.5166 32.8751 12.1833 31.4251 12.25C29.9751 12.3166 28.3584 12.6916 26.5751 13.375C24.7918 14.0583 22.9584 15.0083 21.0751 16.225C19.1918 17.4416 17.4501 18.85 15.8501 20.45L27.4001 32ZM10.9001 9.04996C9.86676 9.71662 9.31676 10.6666 9.2501 11.9C9.18343 13.1333 9.61676 14.2166 10.5501 15.15L13.1001 17.7C14.6668 16.3333 16.2751 15.1 17.9251 14C19.5751 12.9 21.1751 11.9333 22.7251 11.1C24.2751 10.2666 25.7584 9.60829 27.1751 9.12496C28.5918 8.64162 29.8668 8.34996 31.0001 8.24996C27.8334 6.61662 24.4501 5.86662 20.8501 5.99996C17.2501 6.13329 13.9334 7.14996 10.9001 9.04996Z" fill="url(#paint0_linear_11_160)"/>
<defs>
<linearGradient id="paint0_linear_11_160" x1="24.418" y1="5.98486" x2="24.418" y2="41.15" gradientUnits="userSpaceOnUse">
<stop stop-color="#FFD900"/>
<stop offset="1" stop-color="#D28A05"/>
</linearGradient>
</defs>
</svg>
