<svg width="40" height="40" viewBox="0 0 40 40" fill="none" xmlns="http://www.w3.org/2000/svg">
<rect width="40" height="40" rx="12" fill="#0086D4"/>
<rect x="11" y="9" width="20" height="20" rx="6" fill="#221F25"/>
<path fill-rule="evenodd" clip-rule="evenodd" d="M18.1772 4.46456C18.6865 4.17881 19.3135 4.17881 19.822 4.46456C22.3382 5.87681 29.9102 10.1278 32.4272 11.5401C32.9365 11.8251 33.25 12.3531 33.25 12.9246C33.25 15.749 33.25 24.2503 33.25 27.0748C33.25 27.6463 32.9365 28.1743 32.4272 28.46C29.911 29.8723 22.339 34.1233 19.822 35.5355C19.3127 35.8213 18.6857 35.8213 18.1772 35.5355C15.661 34.1233 8.089 29.8723 5.572 28.46C5.0635 28.1743 4.75 27.647 4.75 27.0755C4.75 24.251 4.75 15.7498 4.75 12.9253C4.75 12.3538 5.0635 11.8258 5.57275 11.5401C8.08825 10.1278 15.6617 5.87681 18.1772 4.46456Z" fill="#0086D4"/>
<path fill-rule="evenodd" clip-rule="evenodd" d="M5.978 27.803C5.7785 27.536 5.75 27.2825 5.75 26.9412C5.75 24.1332 5.75 15.6807 5.75 12.872C5.75 12.3035 6.06275 11.7785 6.5705 11.495C9.07775 10.091 16.6242 5.86472 19.1315 4.45997C19.6392 4.17572 20.327 4.18172 20.8347 4.46597C23.342 5.86997 30.863 10.0602 33.3702 11.4642C33.5727 11.5782 33.7272 11.7155 33.8652 11.8962L5.978 27.803Z" fill="#0086D4"/>
<path fill-rule="evenodd" clip-rule="evenodd" d="M20 9.5C25.7952 9.5 30.5 14.2047 30.5 20C30.5 25.7952 25.7952 30.5 20 30.5C14.2047 30.5 9.5 25.7952 9.5 20C9.5 14.2047 14.2047 9.5 20 9.5ZM20 14.75C22.8972 14.75 25.25 17.102 25.25 20C25.25 22.8972 22.8972 25.25 20 25.25C17.1027 25.25 14.75 22.8972 14.75 20C14.75 17.102 17.102 14.75 20 14.75Z" fill="#221F25"/>
<path fill-rule="evenodd" clip-rule="evenodd" d="M33.8637 11.9037C34.2507 12.2659 34.2432 12.8119 34.2432 13.2417C34.2432 16.0879 34.2192 24.1834 34.2499 27.0297C34.2529 27.3267 34.1547 27.6394 34.0077 27.8749L19.6947 19.9999L33.8637 11.9037Z" fill="#0086D4"/>
<path fill-rule="evenodd" clip-rule="evenodd" d="M25.25 17.75H26.75V22.25H25.25V17.75ZM30.5 17.75H32V22.25H30.5V17.75Z" fill="#221F25"/>
<path fill-rule="evenodd" clip-rule="evenodd" d="M23.75 19.25H28.25V20.75H23.75V19.25ZM29 19.25H33.5V20.75H29V19.25Z" fill="#221F25"/>
</svg>
