<svg width="40" height="40" viewBox="0 0 40 40" fill="none" xmlns="http://www.w3.org/2000/svg">
<rect width="40" height="40" rx="12" fill="#A179DC"/>
<rect x="6" y="5" width="30" height="30" rx="6" fill="#221F25"/>
<g clip-path="url(#clip0_29_179)">
<path d="M20 -0.80957C19.3532 -0.80957 18.7065 -0.646995 18.1304 -0.321847L2.89081 8.24158C1.72452 8.89542 1 10.1218 1 11.4365V28.5634C1 29.8781 1.72452 31.1045 2.89081 31.7583L18.1304 40.3218C18.7065 40.6469 19.3532 40.8095 20 40.8095C20.6468 40.8095 21.2935 40.6469 21.8696 40.3218L37.1092 31.7619C38.2755 31.1045 39 29.8781 39 28.5634V11.4365C39 10.1218 38.2755 8.89542 37.1092 8.24158L21.8696 -0.321847C21.2935 -0.646995 20.6468 -0.80957 20 -0.80957ZM20 9.14281C23.4211 9.14281 26.5843 10.7297 28.6341 13.4298L24.6687 15.7271C23.4777 14.4229 21.7848 13.6666 20 13.6666C16.5082 13.6666 13.6667 16.5081 13.6667 20C13.6667 23.4918 16.5082 26.3333 20 26.3333C21.7848 26.3333 23.4777 25.577 24.6687 24.2728L28.6341 26.5701C26.5843 29.2702 23.4211 30.8571 20 30.8571C14.013 30.8571 9.14286 25.9869 9.14286 20C9.14286 14.013 14.013 9.14281 20 9.14281ZM29.0476 15.4761H30.8571V17.2857H32.6667V15.4761H34.4762V17.2857H36.2857V19.0952H34.4762V20.9047H36.2857V22.7142H34.4762V24.5238H32.6667V22.7142H30.8571V24.5238H29.0476V22.7142H27.2381V20.9047H29.0476V19.0952H27.2381V17.2857H29.0476V15.4761ZM30.8571 19.0952V20.9047H32.6667V19.0952H30.8571Z" fill="#A179DC"/>
</g>
<defs>
<clipPath id="clip0_29_179">
<rect width="36" height="36" fill="white" transform="translate(2 2)"/>
</clipPath>
</defs>
</svg>
