<svg width="40" height="40" viewBox="0 0 40 40" fill="none" xmlns="http://www.w3.org/2000/svg">
<rect width="40" height="40" rx="12" fill="#1572B6"/>
<rect x="7" y="7" width="26" height="26" rx="6" fill="#221F25"/>
<path d="M4.46375 4.28125L7.29171 36.0296L19.9812 39.5677L32.706 36.0167L35.5362 4.28125H4.46375ZM29.6612 11.5549L28.7199 22.1313L28.7227 22.1884L28.7187 22.3198V22.3187L28.0499 29.7138L27.9762 30.3708L20 32.577L19.9938 32.5826L12.0313 30.3641L11.4922 24.25H15.3968L15.6738 27.3589L20.0011 28.5317L20 28.534V28.5334L24.3433 27.344L24.8023 22.2812H15.7227L15.6448 21.4254L15.4674 19.4204L15.3743 18.3438H25.1474L25.5029 14.4062H10.6175L10.5396 13.551L10.3624 11.5454L10.269 10.4688H29.7543L29.6612 11.5549Z" fill="#1572B6"/>
</svg>
