<svg width="40" height="40" viewBox="0 0 40 40" fill="none" xmlns="http://www.w3.org/2000/svg">
<rect width="40" height="40" rx="12" fill="#67E6AB"/>
<path d="M19.9999 3.43994V13.5199H14.9599C12.1843 13.5199 9.91992 11.2555 9.91992 8.47994C9.91992 5.70434 12.1843 3.43994 14.9599 3.43994H19.9999ZM19.9999 14.9599V25.0399H14.9599C12.1843 25.0399 9.91992 22.7755 9.91992 19.9999C9.91992 17.2243 12.1843 14.9599 14.9599 14.9599H19.9999ZM19.9999 26.4799V31.5199C19.9999 34.2955 17.7355 36.5599 14.9599 36.5599C12.1843 36.5599 9.91992 34.2955 9.91992 31.5199C9.91992 28.7443 12.1843 26.4799 14.9599 26.4799H19.9999ZM31.5199 8.47994C31.5199 11.2555 29.2555 13.5199 26.4799 13.5199H21.4399V3.43994H26.4799C29.2555 3.43994 31.5199 5.70434 31.5199 8.47994ZM26.4799 14.9599C25.1432 14.9599 23.8613 15.4909 22.9161 16.4361C21.9709 17.3813 21.4399 18.6632 21.4399 19.9999C21.4399 21.3366 21.9709 22.6186 22.9161 23.5638C23.8613 24.5089 25.1432 25.0399 26.4799 25.0399C27.8166 25.0399 29.0986 24.5089 30.0437 23.5638C30.9889 22.6186 31.5199 21.3366 31.5199 19.9999C31.5199 18.6632 30.9889 17.3813 30.0437 16.4361C29.0986 15.4909 27.8166 14.9599 26.4799 14.9599Z" fill="#221F25"/>
</svg>
