<svg width="40" height="40" viewBox="0 0 40 40" fill="none" xmlns="http://www.w3.org/2000/svg">
<rect width="40" height="40" rx="12" fill="#E44D26"/>
<rect x="7" y="6" width="26" height="26" rx="6" fill="#221F25"/>
<path d="M4.54028 2.5625L7.35419 34.0887L19.9812 37.5764L32.6431 34.0926L35.4598 2.5625H4.54028ZM29.607 10.0266L29.4306 12.0437L29.353 12.9688H14.541L14.8945 16.9062H29.0009L28.9064 17.8825L27.9971 28.0409L27.9302 28.6794L20 30.8588V30.8593L19.9905 30.8644L12.0657 28.7767L11.5277 22.8125H15.4131L15.6885 25.8835L19.9879 27.0312H20V26.8777L24.3186 25.7878L24.7698 20.8438H11.3547L10.4032 10.1233L10.3107 9.03125H29.6998L29.607 10.0266Z" fill="#E44D26"/>
</svg>
