<svg width="40" height="40" viewBox="0 0 40 40" fill="none" xmlns="http://www.w3.org/2000/svg">
<rect width="40" height="40" rx="12" fill="#F0DB4F"/>
<rect x="8" y="8" width="26" height="26" rx="6" fill="#221F25"/>
<g clip-path="url(#clip0_29_142)">
<path d="M5.46875 5.23438V34.5312H34.7656V5.23438H5.46875ZM20.9654 30.1984C20.533 31.077 19.7075 31.6543 18.751 31.933C17.2812 32.2705 15.8755 32.078 14.8297 31.4504C14.1298 31.021 13.5833 30.3601 13.2123 29.5986L15.4435 28.2322C15.463 28.2404 15.5216 28.3463 15.5998 28.4832C15.8844 28.9599 16.1298 29.2974 16.6121 29.5344C17.086 29.6961 18.1264 29.7995 18.5281 28.9655C18.7735 28.5413 18.6955 27.1777 18.6955 25.6691C18.6952 23.2984 18.7063 20.9375 18.7063 18.5938H21.4505C21.4505 21.1719 21.4646 23.6136 21.4505 26.1294C21.4564 27.6716 21.5902 29.0464 20.9654 30.1984ZM32.3499 29.423C31.396 32.686 26.0776 32.792 23.9523 30.6362C23.5032 30.1287 23.2217 29.8637 22.9538 29.278C24.0833 28.6283 24.0833 28.6283 25.1823 27.9924C25.7792 28.91 26.3312 29.4146 27.3242 29.6211C28.6714 29.7856 30.0268 29.3227 29.7228 27.8919C29.4104 26.7233 26.9642 26.439 25.2995 25.1893C23.6094 24.0542 23.2133 21.2961 24.6022 19.7202C25.0651 19.1373 25.8545 18.7023 26.6827 18.4932L27.5471 18.3814C29.2067 18.3479 30.2441 18.7862 31.0055 19.6365C31.2174 19.8512 31.3904 20.0827 31.7138 20.5845C30.8298 21.148 30.8326 21.1426 29.5662 21.9624C29.2958 21.3798 28.847 21.0141 28.3726 20.8552C27.6362 20.6321 26.7076 20.8747 26.5149 21.6528C26.4481 21.8926 26.462 22.1157 26.5681 22.5118C26.8665 23.1922 27.8677 23.488 28.7659 23.9007C31.3512 24.9493 32.2243 26.0736 32.439 27.4119C32.6457 28.5641 32.3891 29.3115 32.3499 29.423Z" fill="#F0DB4F"/>
</g>
<defs>
<clipPath id="clip0_29_142">
<rect width="30" height="30" fill="white" transform="translate(5 5)"/>
</clipPath>
</defs>
</svg>
