<svg width="40" height="40" viewBox="0 0 40 40" fill="none" xmlns="http://www.w3.org/2000/svg">
<rect width="40" height="40" rx="12" fill="#E76F00"/>
<path d="M21.6575 7C23.0875 10.3089 16.5307 12.3523 15.9213 15.1087C15.3627 17.6417 19.8172 20.585 19.8213 20.585C19.1449 19.5369 18.6472 18.6736 17.9688 17.0425C16.8211 14.2841 24.9583 11.7877 21.6575 7ZM26.0125 11.5825C26.0125 11.5825 20.26 11.9522 19.9675 15.6287C19.8375 17.2659 21.4808 18.1272 21.5275 19.3175C21.5661 20.2905 20.5525 21.105 20.5525 21.105C20.5525 21.105 22.3969 20.7536 22.9738 19.2687C23.6136 17.6214 21.7266 16.5083 21.9175 15.19C22.1004 13.9286 26.0125 11.5825 26.0125 11.5825ZM16.9775 20.0812C16.9775 20.0812 11.7125 20.0061 11.7125 21.495C11.7125 23.0509 18.6046 23.1667 23.5263 22.21C23.5263 22.21 24.8344 21.3102 25.1838 20.975C21.9582 21.6331 14.605 21.7062 14.605 21.1375C14.605 20.6134 16.9775 20.0812 16.9775 20.0812ZM27.1013 20.0812C26.5854 20.1219 26.0288 20.3209 25.525 20.6825C26.7113 20.4266 27.7188 21.1619 27.7188 21.9987C27.7188 23.8837 24.9888 25.655 24.9888 25.655C24.9888 25.655 29.2138 25.1756 29.2138 22.08C29.2138 20.6744 28.2368 19.9919 27.1013 20.0812ZM15.71 22.9737C14.9016 22.9737 13.695 23.6075 13.695 24.2087C13.695 25.4173 19.7725 26.3477 24.2738 24.5825L22.7138 23.6237C19.6629 24.6008 14.0444 24.2819 15.71 22.9737ZM16.4575 25.6875C15.3505 25.6875 14.6213 26.3558 14.6213 26.8575C14.6213 28.4094 21.233 28.5658 23.8513 26.9875L22.1938 25.9312C20.2377 26.758 15.3282 26.8839 16.4575 25.6875ZM12.7688 27.085C10.965 27.0484 9.79504 27.8589 9.79504 28.5312C9.79504 32.1062 28.255 31.9417 28.255 28.2875C28.255 27.6802 27.5543 27.3856 27.2963 27.2475C28.8055 30.7412 12.1838 30.463 12.1838 28.4012C12.1838 27.932 13.4066 27.4831 14.54 27.7025L13.5813 27.15C13.2989 27.1073 13.0268 27.0911 12.7688 27.085ZM30.205 29.49C27.3979 32.1509 20.2844 33.1158 13.1263 31.4725C20.2824 34.4016 30.1705 32.7583 30.205 29.49Z" fill="#221F25"/>
</svg>
