<svg width="24" height="24" viewBox="0 0 24 24" fill="none" xmlns="http://www.w3.org/2000/svg">
<path d="M12.0025 12.9576C11.158 12.9576 10.4394 12.6621 9.84675 12.0711C9.25392 11.4799 8.9575 10.7621 8.9575 9.91782C8.9575 9.07332 9.25308 8.35473 9.84425 7.76206C10.4354 7.16923 11.1532 6.87281 11.9975 6.87281C12.842 6.87281 13.5606 7.1684 14.1533 7.75956C14.7461 8.35056 15.0425 9.06832 15.0425 9.91282C15.0425 10.7571 14.7469 11.4757 14.1558 12.0686C13.5646 12.6612 12.8468 12.9576 12.0025 12.9576ZM12 21.3958L7.52275 22.8611C7.08592 23.0059 6.68758 22.9449 6.32775 22.6781C5.96792 22.4112 5.788 22.0555 5.788 21.6108V15.6566C5.07933 14.9001 4.52408 14.0311 4.12225 13.0498C3.72042 12.0686 3.5195 11.0238 3.5195 9.91531C3.5195 7.55948 4.344 5.55715 5.993 3.90831C7.64183 2.25931 9.64417 1.43481 12 1.43481C14.3558 1.43481 16.3582 2.25931 18.007 3.90831C19.656 5.55715 20.4805 7.55948 20.4805 9.91531C20.4805 11.0238 20.2796 12.0686 19.8777 13.0498C19.4759 14.0311 18.9207 14.9001 18.212 15.6566V21.6108C18.212 22.0555 18.0321 22.4112 17.6723 22.6781C17.3124 22.9449 16.9141 23.0059 16.4773 22.8611L12 21.3958ZM12 15.7458C13.6195 15.7458 14.9962 15.1789 16.13 14.0451C17.2637 12.9114 17.8305 11.5348 17.8305 9.91531C17.8305 8.29565 17.2637 6.91898 16.13 5.78531C14.9962 4.65165 13.6195 4.08481 12 4.08481C10.3805 4.08481 9.00383 4.65165 7.87 5.78531C6.73633 6.91898 6.1695 8.29565 6.1695 9.91531C6.1695 11.5348 6.73633 12.9114 7.87 14.0451C9.00383 15.1789 10.3805 15.7458 12 15.7458Z" fill="url(#paint0_linear_93_2)"/>
<defs>
<linearGradient id="paint0_linear_93_2" x1="12" y1="1.43481" x2="12" y2="22.9375" gradientUnits="userSpaceOnUse">
<stop stop-color="#FFD900"/>
<stop offset="1" stop-color="#D28A05"/>
</linearGradient>
</defs>
</svg>
