<svg width="40" height="40" viewBox="0 0 40 40" fill="none" xmlns="http://www.w3.org/2000/svg">
<rect width="40" height="40" rx="12" fill="#F84A3A"/>
<path d="M17.4235 20.697H19.3839L18.3473 18.6957L16.4448 22.3142H15.5789L17.893 17.9676C17.9937 17.792 18.1613 17.6859 18.3473 17.6859C18.5272 17.6859 18.6949 17.7884 18.7925 17.9603L21.1157 22.3141H20.2498L19.8413 21.5056H17.8564L17.4235 20.697ZM26.4178 21.5056V17.7298H25.683V21.8751C25.683 21.9885 25.7196 22.0983 25.7897 22.1824C25.8598 22.2666 25.9543 22.3141 26.058 22.3141H29.4087L29.8417 21.5056H26.4178ZM14.2618 20.8287C14.9752 20.8287 15.5545 20.1372 15.5545 19.2811C15.5545 18.425 14.9752 17.7298 14.2618 17.7298H11.0473V22.3141H11.7818V18.5384H14.213C14.5545 18.5384 14.8289 18.8713 14.8289 19.2811C14.8289 19.6909 14.5545 20.0238 14.213 20.0238L12.1416 20.0202L14.335 22.3141H15.4021L13.9264 20.8287L14.2618 20.8287ZM6.52582 22.3141C5.47118 22.3141 4.61536 21.2897 4.61536 20.0238C4.61536 18.7579 5.47119 17.7298 6.52581 17.7298H8.74632C9.80124 17.7298 10.6565 18.7579 10.6565 20.0238C10.6565 21.2897 9.80124 22.3141 8.74632 22.3141H6.52582ZM8.69693 21.5056C9.3802 21.5056 9.93358 20.8434 9.93358 20.0238C9.93358 19.2043 9.3802 18.5384 8.69693 18.5384H6.57489C5.89194 18.5384 5.33824 19.2043 5.33824 20.0238C5.33824 20.8434 5.89194 21.5056 6.57489 21.5056H8.69693ZM22.6493 22.3141C21.5944 22.3141 20.7377 21.2897 20.7377 20.0238C20.7377 18.7579 21.5944 17.7298 22.6493 17.7298H25.2866L24.8567 18.5384H22.6981C22.0151 18.5384 21.4603 19.2043 21.4603 20.0238C21.4603 20.8434 22.0151 21.5056 22.6981 21.5056H25.3476L24.9147 22.3141H22.6493ZM31.6344 21.5056C31.0704 21.5056 30.5917 21.0519 30.4454 20.4263H33.5857L34.0187 19.6177H30.4454C30.5917 18.9957 31.0704 18.5384 31.6344 18.5384H33.79L34.226 17.7298H31.5857C30.5307 17.7298 29.674 18.7579 29.674 20.0238C29.674 21.2897 30.5307 22.3141 31.5857 22.3141H33.851L34.2839 21.5056H31.6344ZM34.6193 18.2164C34.6192 18.1635 34.6278 18.1111 34.6446 18.0622C34.6614 18.0133 34.6861 17.9689 34.7173 17.9315C34.7484 17.8941 34.7855 17.8645 34.8262 17.8443C34.867 17.8241 34.9106 17.8138 34.9547 17.814C35.1437 17.814 35.2931 17.9932 35.2931 18.2164C35.2931 18.4433 35.1437 18.6225 34.9547 18.6225C34.7687 18.6225 34.6193 18.4433 34.6193 18.2164ZM34.9547 18.736C35.1925 18.736 35.3846 18.5055 35.3846 18.2201C35.3846 17.9347 35.1925 17.7042 34.9547 17.7042C34.7199 17.7042 34.5279 17.9347 34.5279 18.2201C34.5279 18.5055 34.7199 18.736 34.9547 18.736ZM34.9151 17.9128C34.9821 17.9128 35.0096 17.9164 35.0401 17.931C35.1254 17.964 35.1346 18.0554 35.1346 18.092C35.1346 18.0993 35.1346 18.1176 35.1285 18.1396C35.1254 18.1615 35.1132 18.2054 35.0706 18.2384C35.0645 18.242 35.0614 18.2457 35.0492 18.253L35.159 18.4908H35.0523L34.9547 18.2713H34.8876V18.4908H34.7931V17.9128H34.9151ZM34.9486 18.1762C34.9791 18.1725 35.0096 18.1725 35.0279 18.1396C35.037 18.125 35.0401 18.1103 35.0401 18.0884C35.0401 18.0591 35.0248 18.0335 35.0035 18.0189C34.9821 18.0079 34.9608 18.0079 34.9151 18.0079H34.8876V18.1762H34.9486Z" fill="#221F25"/>
</svg>
