<svg width="40" height="40" viewBox="0 0 40 40" fill="none" xmlns="http://www.w3.org/2000/svg">
<rect width="40" height="40" rx="12" fill="#8892BF"/>
<rect x="9" y="8" width="24" height="24" rx="6" fill="#221F25"/>
<path d="M20 35.75C28.6985 35.75 35.75 28.6985 35.75 20C35.75 11.3015 28.6985 4.25 20 4.25C11.3015 4.25 4.25 11.3015 4.25 20C4.25 28.6985 11.3015 35.75 20 35.75Z" fill="#8892BF"/>
<path d="M18.2441 13.25H20.1341L19.5999 16.0897H21.2982C22.2296 16.1096 22.9234 16.3178 23.38 16.7142C23.8457 17.1105 23.9827 17.8641 23.791 18.9741L22.8734 23.925H20.9559L21.8324 19.1971C21.9236 18.7014 21.8963 18.3496 21.7503 18.1415C21.6042 17.9334 21.2892 17.8293 20.8053 17.8293L19.2849 17.8145L18.1619 23.925H16.2719L18.2441 13.25Z" fill="#221F25"/>
<path fill-rule="evenodd" clip-rule="evenodd" d="M9.58354 16.0898H13.2541C14.3314 16.0996 15.1121 16.4368 15.5961 17.1008C16.08 17.7649 16.2398 18.6717 16.0754 19.8216C16.0117 20.3471 15.87 20.8623 15.6509 21.3679C15.4408 21.8734 15.1488 22.3292 14.7744 22.7357C14.3177 23.251 13.8293 23.5781 13.3088 23.717C12.7884 23.8558 12.2496 23.9251 11.6927 23.9251H10.0492L9.52875 26.75H7.625L9.58354 16.0898ZM10.3642 22.2451L11.1832 17.7996H11.4599C11.5604 17.7996 11.6653 17.7946 11.7749 17.7848C12.5054 17.7749 13.1125 17.8492 13.5965 18.0077C14.0895 18.1663 14.2538 18.766 14.0895 19.8067C13.8888 21.0458 13.4959 21.7693 12.9117 21.9774C12.3274 22.1758 11.5968 22.2698 10.7203 22.2599H10.5286C10.4738 22.2599 10.419 22.2548 10.3642 22.2451Z" fill="#221F25"/>
<path fill-rule="evenodd" clip-rule="evenodd" d="M29.4911 16.0898H25.8206L23.8621 26.75H25.7658L26.2863 23.9251H27.9298C28.4867 23.9251 29.0255 23.8558 29.5459 23.717C30.0664 23.5781 30.5548 23.251 31.0114 22.7357C31.3858 22.3292 31.6779 21.8734 31.8879 21.3679C32.1071 20.8623 32.2487 20.3471 32.3125 19.8216C32.4769 18.6717 32.3172 17.7649 31.8331 17.1008C31.3492 16.4368 30.5685 16.0996 29.4911 16.0898ZM27.4203 17.7996L26.6013 22.2451C26.6561 22.2548 26.7109 22.2599 26.7657 22.2599H26.9574C27.834 22.2698 28.5644 22.1758 29.1488 21.9774C29.733 21.7693 30.1258 21.0458 30.3266 19.8067C30.491 18.766 30.3266 18.1663 29.8336 18.0077C29.3496 17.8492 28.7425 17.7749 28.012 17.7848C27.9024 17.7946 27.7975 17.7996 27.697 17.7996H27.4203Z" fill="#221F25"/>
</svg>
